<svg xmlns="http://www.w3.org/2000/svg" viewBox="0 0 64 64" role="img" aria-label="AiPlus">
  <rect width="64" height="64" rx="16" fill="#F5F1E7"/>
  <path d="M14.5 20.2C18.6 12.7 28.8 9.1 38.2 12.7c8.9 3.4 13.5 13.8 10.7 23.1-2.6 8.5-10.7 15.2-20.1 14.9-8.8-.3-16.4-7.2-17.1-15.9-.4-5 1-10.2 2.8-14.6Z" fill="#17312E"/>
  <path d="M39.5 9.2c5.9-3.7 10.5-1.7 11.5 3.8-5.2 2.3-9.3 1.2-11.5-3.8Z" fill="#FF9F2F"/>
  <text x="22" y="39" fill="#FFFDF7" font-family="Onest,system-ui,sans-serif" font-size="27" font-weight="800">a</text>
  <circle cx="44.5" cy="43.5" r="9.5" fill="#FF9F2F"/>
  <path d="M44.5 38v11M39 43.5h11" stroke="#17312E" stroke-width="2.6" stroke-linecap="round"/>
</svg>
