<svg xmlns="http://www.w3.org/2000/svg" width="1200" height="1500" viewBox="0 0 1200 1500">
  <rect width="1200" height="1500" fill="#f8f5e9"/>
  <g stroke="#b6d1df" stroke-width="2" opacity="0.65">
    <path d="M0 210H1200M0 330H1200M0 450H1200M0 570H1200M0 690H1200M0 810H1200M0 930H1200M0 1050H1200M0 1170H1200M0 1290H1200M0 1410H1200"/>
  </g>
  <path d="M150 0V1500" stroke="#df9d9d" stroke-width="3" opacity="0.72"/>
  <g transform="rotate(-0.25 600 750)" fill="#203f76" font-family="DejaVu Sans, sans-serif" font-style="italic">
    <text x="205" y="160" font-size="46">Выпарили воду из раствора</text>
    <text x="205" y="350" font-size="52">1) Масса соли:</text>
    <text x="250" y="480" font-size="68">0,20 · 300 = 60 г</text>
    <text x="205" y="700" font-size="52">2) Новая масса раствора:</text>
    <text x="250" y="830" font-size="68">300 − 100 = 200 г</text>
    <text x="205" y="1050" font-size="52">3) Новая концентрация:</text>
    <text x="250" y="1180" font-size="68">60 : 200 · 100 = 30%</text>
    <path d="M245 1210 C470 1220 740 1215 1020 1205" fill="none" stroke="#203f76" stroke-width="5" stroke-linecap="round" opacity="0.7"/>
    <text x="205" y="1380" font-size="64">Ответ: 30%</text>
  </g>
</svg>
