<svg xmlns="http://www.w3.org/2000/svg" width="1200" height="1500" viewBox="0 0 1200 1500">
  <rect width="1200" height="1500" fill="#f8f5e9"/>
  <g stroke="#b6d1df" stroke-width="2" opacity="0.65">
    <path d="M0 210H1200M0 330H1200M0 450H1200M0 570H1200M0 690H1200M0 810H1200M0 930H1200M0 1050H1200M0 1170H1200M0 1290H1200M0 1410H1200"/>
  </g>
  <path d="M150 0V1500" stroke="#df9d9d" stroke-width="3" opacity="0.72"/>
  <g transform="rotate(0.3 600 750)" fill="#203f76" font-family="DejaVu Sans, sans-serif" font-style="italic">
    <text x="205" y="155" font-size="46">Добавили воду к раствору</text>
    <text x="205" y="330" font-size="50">1) Масса соли:</text>
    <text x="250" y="460" font-size="66">400 · 0,15 = 60 г</text>
    <text x="205" y="670" font-size="50">2) Новая масса раствора:</text>
    <text x="250" y="800" font-size="66">400 + 100 = 500 г</text>
    <text x="205" y="1010" font-size="50">3) Новая концентрация:</text>
    <text x="250" y="1140" font-size="66">60 : 500 · 100 = 12%</text>
    <path d="M245 1170 C465 1182 735 1177 1010 1166" fill="none" stroke="#203f76" stroke-width="5" stroke-linecap="round" opacity="0.7"/>
    <text x="205" y="1340" font-size="62">Ответ: 12%</text>
  </g>
</svg>
